<svg xmlns="http://www.w3.org/2000/svg" xmlns:xlink="http://www.w3.org/1999/xlink" preserveAspectRatio="xMidYMid" width="41" height="33" viewBox="0 0 41 33">
  <defs>
    <style>

      .cls-2 {
        fill: url(#linear-gradient-1);
        filter: url(#color-overlay-1);
      }
    </style>

    <linearGradient id="linear-gradient-1" gradientUnits="userSpaceOnUse" x1="3.563" y1="0.032" x2="36.531" y2="33">
      <stop offset="0" stop-color="#ffffff"/>
      <stop offset="1" stop-color="#ffffff"/>
    </linearGradient>
    <filter id="color-overlay-1" filterUnits="userSpaceOnUse">
      <feFlood flood-color="#ff3b4a" flood-opacity="1"/>
      <feComposite operator="in" in2="SourceGraphic"/>
      <feBlend mode="normal" in2="SourceGraphic" result="colorOverlay"/>
    </filter>
  </defs>
  <path d="M40.081,10.415 C40.081,10.383 40.055,10.368 40.050,10.337 C40.042,10.268 40.055,10.198 40.026,10.132 C40.026,10.132 35.907,0.435 35.907,0.435 C35.793,0.170 35.530,-0.005 35.238,-0.005 C35.238,-0.005 4.840,-0.005 4.840,-0.005 C4.547,-0.005 4.284,0.170 4.171,0.435 C4.171,0.435 0.049,10.132 0.049,10.132 C0.020,10.198 0.033,10.268 0.023,10.337 C0.020,10.368 -0.006,10.383 -0.006,10.415 C-0.006,10.429 0.010,10.441 0.010,10.457 C0.020,10.615 0.065,10.766 0.173,10.891 C0.173,10.891 19.493,32.724 19.493,32.724 C19.508,32.743 19.537,32.735 19.553,32.754 C19.606,32.801 19.648,32.843 19.711,32.876 C19.724,32.882 19.727,32.905 19.745,32.910 C19.840,32.950 19.940,32.971 20.035,32.971 C20.132,32.971 20.232,32.950 20.327,32.910 C20.345,32.905 20.348,32.882 20.361,32.873 C20.424,32.843 20.467,32.801 20.517,32.754 C20.535,32.735 20.564,32.743 20.580,32.724 C20.580,32.724 39.900,10.891 39.900,10.891 C40.008,10.766 40.055,10.615 40.065,10.457 C40.065,10.441 40.081,10.429 40.081,10.415 ZM24.965,1.438 C24.965,1.438 28.518,9.694 28.518,9.694 C28.518,9.694 11.557,9.694 11.557,9.694 C11.557,9.694 15.113,1.438 15.113,1.438 C15.113,1.438 24.965,1.438 24.965,1.438 ZM28.508,11.136 C28.508,11.136 20.035,30.443 20.035,30.443 C20.035,30.443 11.567,11.136 11.567,11.136 C11.567,11.136 28.508,11.136 28.508,11.136 ZM9.983,11.136 C9.983,11.136 17.513,28.307 17.513,28.307 C17.513,28.307 2.321,11.136 2.321,11.136 C2.321,11.136 9.983,11.136 9.983,11.136 ZM30.092,11.136 C30.092,11.136 37.752,11.136 37.752,11.136 C37.752,11.136 22.559,28.304 22.559,28.304 C22.559,28.304 30.092,11.136 30.092,11.136 ZM38.265,9.694 C38.265,9.694 30.095,9.694 30.095,9.694 C30.095,9.694 26.542,1.438 26.542,1.438 C26.542,1.438 34.756,1.438 34.756,1.438 C34.756,1.438 38.265,9.694 38.265,9.694 ZM5.319,1.438 C5.319,1.438 13.539,1.438 13.539,1.438 C13.539,1.438 9.983,9.694 9.983,9.694 C9.983,9.694 1.810,9.694 1.810,9.694 C1.810,9.694 5.319,1.438 5.319,1.438 Z" id="path-1" class="cls-2" fill-rule="evenodd"/>
</svg>
