<svg xmlns="http://www.w3.org/2000/svg" xmlns:xlink="http://www.w3.org/1999/xlink" preserveAspectRatio="xMidYMid" width="39" height="38" viewBox="0 0 39 38">
  <defs>
    <style>

      .cls-2 {
        fill: url(#linear-gradient-1);
        filter: url(#color-overlay-1);
      }
    </style>

    <linearGradient id="linear-gradient-1" gradientUnits="userSpaceOnUse" x1="0.625" y1="0.156" x2="37.625" y2="37.156">
      <stop offset="0" stop-color="#ffffff"/>
      <stop offset="1" stop-color="#ffffff"/>
    </linearGradient>
    <filter id="color-overlay-1" filterUnits="userSpaceOnUse">
      <feFlood flood-color="#ff3b4a" flood-opacity="1"/>
      <feComposite operator="in" in2="SourceGraphic"/>
      <feBlend mode="normal" in2="SourceGraphic" result="colorOverlay"/>
    </filter>
  </defs>
  <path d="M39.200,12.910 C38.151,10.097 36.601,7.554 34.591,5.352 C32.593,3.163 30.201,1.390 27.478,0.082 C27.172,-0.064 26.805,-0.012 26.553,0.221 C26.553,0.221 9.065,16.182 9.065,16.182 C9.065,16.182 7.045,18.026 7.045,18.026 C6.936,18.113 6.842,18.229 6.785,18.370 C6.776,18.391 6.766,18.419 6.757,18.443 C6.757,18.443 2.055,30.653 2.055,30.653 C2.055,30.653 0.048,35.870 0.048,35.870 C-0.068,36.165 -0.001,36.496 0.211,36.733 C0.372,36.909 0.596,37.002 0.827,37.002 C0.903,37.002 0.981,36.993 1.057,36.969 C1.057,36.969 6.436,35.445 6.436,35.445 C6.436,35.445 19.085,31.857 19.085,31.857 C19.164,31.836 19.243,31.801 19.316,31.754 C19.355,31.727 19.395,31.697 19.431,31.667 C19.431,31.667 21.496,29.781 21.496,29.781 C21.496,29.781 38.981,13.819 38.981,13.819 C39.233,13.589 39.318,13.229 39.200,12.910 ZM3.280,32.117 C3.313,32.139 3.352,32.152 3.386,32.169 C3.744,32.394 4.077,32.642 4.353,32.948 C4.629,33.250 4.847,33.603 5.038,33.978 C5.060,34.011 5.069,34.053 5.084,34.091 C5.084,34.091 2.206,34.908 2.206,34.908 C2.206,34.908 3.280,32.117 3.280,32.117 ZM18.446,30.302 C18.446,30.302 6.733,33.624 6.733,33.624 C6.700,33.551 6.642,33.497 6.606,33.427 C6.336,32.840 6.011,32.287 5.587,31.820 C5.160,31.355 4.638,30.985 4.077,30.661 C4.007,30.620 3.965,30.557 3.895,30.521 C3.895,30.521 8.267,19.170 8.267,19.170 C8.267,19.170 9.577,17.981 9.577,17.981 C9.577,17.981 10.635,19.137 10.635,19.137 C10.635,19.137 19.749,29.112 19.749,29.112 C19.749,29.112 18.446,30.302 18.446,30.302 ZM20.983,27.985 C20.983,27.985 18.337,25.089 18.337,25.089 C18.337,25.089 32.238,12.405 32.238,12.405 C32.417,12.238 32.508,12.013 32.508,11.784 C32.508,11.586 32.438,11.384 32.290,11.224 C31.980,10.884 31.450,10.861 31.110,11.171 C31.110,11.171 17.209,23.855 17.209,23.855 C17.209,23.855 16.666,23.258 16.666,23.258 C16.666,23.258 14.583,20.974 14.583,20.974 C14.583,20.974 28.479,8.291 28.479,8.291 C28.660,8.123 28.752,7.899 28.752,7.669 C28.752,7.471 28.679,7.269 28.533,7.109 C28.221,6.770 27.690,6.749 27.351,7.057 C27.351,7.057 13.452,19.743 13.452,19.743 C13.452,19.743 10.811,16.849 10.811,16.849 C10.811,16.849 27.257,1.837 27.257,1.837 C29.576,3.024 31.629,4.581 33.357,6.482 C35.097,8.384 36.462,10.566 37.432,12.971 C37.432,12.971 20.983,27.985 20.983,27.985 Z" id="path-1" class="cls-2" fill-rule="evenodd"/>
</svg>
