<svg xmlns="http://www.w3.org/2000/svg" xmlns:xlink="http://www.w3.org/1999/xlink" preserveAspectRatio="xMidYMid" width="40" height="41" viewBox="0 0 40 41">
  <defs>
    <style>

      .cls-2 {
        fill: url(#linear-gradient-1);
        filter: url(#color-overlay-1);
      }
    </style>

    <linearGradient id="linear-gradient-1" gradientUnits="userSpaceOnUse" x1="-0.344" y1="0.047" x2="39.75" y2="40.141">
      <stop offset="0" stop-color="#ffffff"/>
      <stop offset="1" stop-color="#ffffff"/>
    </linearGradient>
    <filter id="color-overlay-1" filterUnits="userSpaceOnUse">
      <feFlood flood-color="#ff3b4a" flood-opacity="1"/>
      <feComposite operator="in" in2="SourceGraphic"/>
      <feBlend mode="normal" in2="SourceGraphic" result="colorOverlay"/>
    </filter>
  </defs>
  <path d="M39.545,23.207 C39.545,23.207 34.565,24.459 34.565,24.459 C34.273,25.439 33.878,26.388 33.395,27.288 C33.395,27.288 36.040,31.704 36.040,31.704 C36.209,31.990 36.165,32.353 35.930,32.586 C35.930,32.586 32.516,36.016 32.516,36.016 C32.281,36.248 31.918,36.288 31.639,36.125 C31.639,36.125 27.233,33.473 27.233,33.473 C26.324,33.970 25.374,34.371 24.401,34.678 C24.401,34.678 23.169,39.641 23.169,39.641 C23.088,39.960 22.801,40.186 22.469,40.186 C22.469,40.186 17.638,40.189 17.638,40.189 C17.309,40.189 17.022,39.963 16.941,39.644 C16.941,39.644 15.704,34.681 15.704,34.681 C14.740,34.383 13.790,33.977 12.872,33.476 C12.872,33.476 8.471,36.125 8.471,36.125 C8.189,36.295 7.826,36.248 7.594,36.019 C7.594,36.019 4.174,32.588 4.174,32.588 C3.942,32.356 3.898,31.993 4.067,31.709 C4.067,31.709 6.709,27.302 6.709,27.302 C6.218,26.390 5.824,25.441 5.532,24.464 C5.532,24.464 0.557,23.217 0.557,23.217 C0.238,23.137 0.011,22.846 0.011,22.519 C0.011,22.519 0.011,17.675 0.011,17.675 C0.011,17.342 0.238,17.053 0.557,16.975 C0.557,16.975 5.503,15.737 5.503,15.737 C5.806,14.761 6.210,13.808 6.706,12.892 C6.706,12.892 4.065,8.477 4.065,8.477 C3.895,8.193 3.940,7.829 4.172,7.596 C4.172,7.596 7.586,4.173 7.586,4.173 C7.821,3.938 8.184,3.889 8.466,4.065 C8.466,4.065 12.866,6.711 12.866,6.711 C13.772,6.225 14.720,5.826 15.693,5.534 C15.693,5.534 16.936,0.544 16.936,0.544 C17.016,0.223 17.304,-0.003 17.633,-0.003 C17.633,-0.003 22.464,-0.003 22.464,-0.003 C22.793,-0.003 23.083,0.223 23.161,0.544 C23.161,0.544 24.398,5.510 24.398,5.510 C25.369,5.814 26.319,6.218 27.228,6.708 C27.228,6.708 31.634,4.056 31.634,4.056 C31.910,3.895 32.276,3.938 32.511,4.167 C32.511,4.167 35.925,7.591 35.925,7.591 C36.160,7.824 36.204,8.187 36.034,8.473 C36.034,8.473 33.393,12.892 33.393,12.892 C33.878,13.798 34.273,14.748 34.565,15.718 C34.565,15.718 39.545,16.970 39.545,16.970 C39.866,17.048 40.091,17.339 40.091,17.669 C40.091,17.669 40.091,22.510 40.091,22.510 C40.091,22.839 39.866,23.130 39.545,23.207 ZM38.652,18.232 C38.652,18.232 33.813,17.016 33.813,17.016 C33.560,16.955 33.362,16.759 33.294,16.506 C32.988,15.373 32.532,14.270 31.939,13.234 C31.811,13.010 31.814,12.730 31.947,12.504 C31.947,12.504 34.513,8.214 34.513,8.214 C34.513,8.214 31.892,5.586 31.892,5.586 C31.892,5.586 27.611,8.162 27.611,8.162 C27.389,8.297 27.113,8.303 26.883,8.168 C25.839,7.564 24.737,7.097 23.605,6.776 C23.357,6.708 23.166,6.510 23.103,6.259 C23.103,6.259 21.903,1.439 21.903,1.439 C21.903,1.439 18.196,1.439 18.196,1.439 C18.196,1.439 16.988,6.287 16.988,6.287 C16.925,6.539 16.729,6.740 16.479,6.807 C15.343,7.117 14.245,7.575 13.211,8.169 C12.986,8.303 12.710,8.300 12.483,8.162 C12.483,8.162 8.207,5.588 8.207,5.588 C8.207,5.588 5.586,8.219 5.586,8.219 C5.586,8.219 8.152,12.504 8.152,12.504 C8.288,12.730 8.288,13.010 8.158,13.236 C7.555,14.289 7.085,15.397 6.769,16.529 C6.698,16.781 6.500,16.972 6.249,17.035 C6.249,17.035 1.449,18.238 1.449,18.238 C1.449,18.238 1.449,21.953 1.449,21.953 C1.449,21.953 6.283,23.168 6.283,23.168 C6.537,23.231 6.735,23.427 6.803,23.679 C7.111,24.815 7.565,25.916 8.163,26.954 C8.293,27.181 8.291,27.462 8.155,27.686 C8.155,27.686 5.589,31.970 5.589,31.970 C5.589,31.970 8.212,34.602 8.212,34.602 C8.212,34.602 12.488,32.026 12.488,32.026 C12.603,31.957 12.731,31.922 12.859,31.922 C12.981,31.922 13.106,31.953 13.219,32.018 C14.273,32.628 15.377,33.096 16.497,33.408 C16.745,33.479 16.936,33.681 17.001,33.931 C17.001,33.931 18.202,38.746 18.202,38.746 C18.202,38.746 21.908,38.743 21.908,38.743 C21.908,38.743 23.106,33.926 23.106,33.926 C23.169,33.678 23.359,33.479 23.607,33.408 C24.743,33.089 25.844,32.620 26.886,32.017 C27.113,31.883 27.389,31.887 27.614,32.020 C27.614,32.020 31.895,34.600 31.895,34.600 C31.895,34.600 34.518,31.965 34.518,31.965 C34.518,31.965 31.947,27.676 31.947,27.676 C31.811,27.450 31.811,27.169 31.939,26.942 C32.532,25.914 32.986,24.817 33.294,23.672 C33.362,23.421 33.560,23.226 33.813,23.163 C33.813,23.163 38.652,21.946 38.652,21.946 C38.652,21.946 38.652,18.232 38.652,18.232 ZM20.055,25.657 C16.996,25.657 14.506,23.163 14.506,20.092 C14.506,17.023 16.996,14.529 20.055,14.529 C23.111,14.529 25.599,17.023 25.599,20.092 C25.599,23.163 23.111,25.657 20.055,25.657 ZM20.055,15.971 C17.787,15.971 15.944,17.820 15.944,20.092 C15.944,22.364 17.787,24.215 20.055,24.215 C22.318,24.215 24.161,22.364 24.161,20.092 C24.161,17.820 22.318,15.971 20.055,15.971 Z" id="path-1" class="cls-2" fill-rule="evenodd"/>
</svg>
